<svg xmlns="http://www.w3.org/2000/svg" xmlns:xlink="http://www.w3.org/1999/xlink" version="1.1" x="0px" y="0px" width="122.88px" height="107.128px" viewBox="0 0 32 40" style="enable-background:new 0 0 32 32;" xml:space="preserve">
  <path fill="#D3D3D3" d="M26,3H6C4.35,3,3,4.35,3,6v1.17c0,0.8,0.31,1.56,0.88,2.12L12,17.41V28c0,0.32,0.15,0.62,0.41,0.81  C12.59,28.94,12.79,29,13,29c0.1,0,0.21-0.02,0.31-0.05l4.64-1.55C19.18,27,20,25.85,20,24.56v-7.15l8.12-8.12  C28.69,8.73,29,7.97,29,7.17V6C29,4.35,27.65,3,26,3z"/>
</svg>