<svg xmlns="http://www.w3.org/2000/svg" xmlns:xlink="http://www.w3.org/1999/xlink" version="1.1" x="0px" y="0px" viewBox="0 0 32 40" style="enable-background:new 0 0 32 32;" xml:space="preserve">
    <g>
        <path fill="#9f9f9f" d="M25.17,3H6.83C4.72,3,3,4.72,3,6.83c0,1.02,0.4,1.98,1.12,2.71L12,17.42v9.17c0,1.33,1.08,2.41,2.41,2.41   c0.64,0,1.26-0.26,1.71-0.71l3-3c0.57-0.57,0.88-1.32,0.88-2.12v-5.76l7.88-7.88C28.6,8.81,29,7.85,29,6.83   C29,4.72,27.28,3,25.17,3z M26.46,8.12L18.59,16C18.21,16.38,18,16.88,18,17.42v5.76c0,0.26-0.11,0.52-0.29,0.71l-3,3   C14.47,27.12,14,26.92,14,26.59v-9.17c0-0.53-0.21-1.04-0.59-1.41L5.54,8.12C5.2,7.78,5,7.31,5,6.83C5,5.82,5.82,5,6.83,5h18.34   C26.18,5,27,5.82,27,6.83C27,7.31,26.8,7.78,26.46,8.12z"/>
    </g>
</svg>